<?xml version="1.0" encoding="utf-8"?>
<!-- Generator: Adobe Illustrator 18.1.1, SVG Export Plug-In . SVG Version: 6.00 Build 0)  -->
<svg version="1.1" id="Layer_1" xmlns="http://www.w3.org/2000/svg" xmlns:xlink="http://www.w3.org/1999/xlink" x="0px" y="0px"
	 viewBox="0 0 276 137" enable-background="new 0 0 276 137" xml:space="preserve">
<g>
	<defs>
		<circle id="SVGID_1049_" cx="-153.9" cy="70.5" r="50.5"/>
	</defs>
	<clipPath id="SVGID_2_">
		<use xlink:href="#SVGID_1049_"  overflow="visible"/>
	</clipPath>
	<g clip-path="url(#SVGID_2_)">
		<defs>
			<rect id="SVGID_1051_" x="-328.4" y="-665.5" width="1121" height="1030"/>
		</defs>
		<clipPath id="SVGID_4_">
			<use xlink:href="#SVGID_1051_"  overflow="visible"/>
		</clipPath>
	</g>
</g>
<g>
	<defs>
		<circle id="SVGID_1053_" cx="-153.9" cy="70.5" r="43.5"/>
	</defs>
	<clipPath id="SVGID_6_">
		<use xlink:href="#SVGID_1053_"  overflow="visible"/>
	</clipPath>
	<g clip-path="url(#SVGID_6_)">
		<defs>
			<rect id="SVGID_1055_" x="-328.4" y="-665.5" width="1121" height="1030"/>
		</defs>
		<clipPath id="SVGID_8_">
			<use xlink:href="#SVGID_1055_"  overflow="visible"/>
		</clipPath>
	</g>
</g>
<g>
	<defs>
		<path id="SVGID_1071_" d="M-749.3-189.5c-24.6,0-44.6-20-44.6-44.6s20-44.6,44.6-44.6s44.6,20,44.6,44.6S-724.7-189.5-749.3-189.5
			z M-749.3-186.8c26.1,0,47.3-21.2,47.3-47.3s-21.2-47.3-47.3-47.3c-26.1,0-47.3,21.2-47.3,47.3S-775.4-186.8-749.3-186.8z
			 M-814.8-299.6h131v131h-131V-299.6z"/>
	</defs>
	<clipPath id="SVGID_10_">
		<use xlink:href="#SVGID_1071_"  overflow="visible"/>
	</clipPath>
	<g clip-path="url(#SVGID_10_)">
		<defs>
			<circle id="SVGID_1073_" cx="-749.3" cy="-234.1" r="45.9"/>
		</defs>
		<clipPath id="SVGID_12_">
			<use xlink:href="#SVGID_1073_"  overflow="visible"/>
		</clipPath>
		<g clip-path="url(#SVGID_12_)">
			<defs>
				<rect id="SVGID_1075_" x="-908" y="-903.7" width="1019.8" height="937"/>
			</defs>
			<clipPath id="SVGID_14_">
				<use xlink:href="#SVGID_1075_"  overflow="visible"/>
			</clipPath>
		</g>
	</g>
</g>
<g>
	<defs>
		<circle id="SVGID_1077_" cx="-749.3" cy="-234.1" r="45.9"/>
	</defs>
	<clipPath id="SVGID_16_">
		<use xlink:href="#SVGID_1077_"  overflow="visible"/>
	</clipPath>
	<g clip-path="url(#SVGID_16_)">
		<defs>
			<rect id="SVGID_1079_" x="-908" y="-903.7" width="1019.8" height="937"/>
		</defs>
		<clipPath id="SVGID_18_">
			<use xlink:href="#SVGID_1079_"  overflow="visible"/>
		</clipPath>
	</g>
</g>
<g>
	<defs>
		<circle id="SVGID_1081_" cx="-749.3" cy="-234.1" r="39.6"/>
	</defs>
	<clipPath id="SVGID_20_">
		<use xlink:href="#SVGID_1081_"  overflow="visible"/>
	</clipPath>
	<g clip-path="url(#SVGID_20_)">
		<defs>
			<rect id="SVGID_1083_" x="-908" y="-903.7" width="1019.8" height="937"/>
		</defs>
		<clipPath id="SVGID_22_">
			<use xlink:href="#SVGID_1083_"  overflow="visible"/>
		</clipPath>
	</g>
</g>
<g>
	<defs>
		<path id="SVGID_1085_" d="M-210.5-122.8h-1.5v1.5v81v1.5h1.5h105h1.5v-1.5v-81v-1.5h-1.5H-210.5z M-210.5-119.8h105l-1.5-1.5v81
			l1.5-1.5h-105l1.5,1.5v-81L-210.5-119.8z M-232-142.8h148v124h-148V-142.8z"/>
	</defs>
	<clipPath id="SVGID_24_">
		<use xlink:href="#SVGID_1085_"  overflow="visible"/>
	</clipPath>
	<g clip-path="url(#SVGID_24_)">
		<defs>
			<rect id="SVGID_1087_" x="-210.5" y="-121.3" width="105" height="81"/>
		</defs>
		<clipPath id="SVGID_26_">
			<use xlink:href="#SVGID_1087_"  overflow="visible"/>
		</clipPath>
		<g clip-path="url(#SVGID_26_)">
			<defs>
				<rect id="SVGID_1089_" x="-1091.5" y="-620.3" width="1121" height="1030"/>
			</defs>
			<clipPath id="SVGID_28_">
				<use xlink:href="#SVGID_1089_"  overflow="visible"/>
			</clipPath>
		</g>
	</g>
</g>
<g>
	<defs>
		<rect id="SVGID_1091_" x="-210.5" y="-121.3" width="105" height="81"/>
	</defs>
	<clipPath id="SVGID_30_">
		<use xlink:href="#SVGID_1091_"  overflow="visible"/>
	</clipPath>
	<g clip-path="url(#SVGID_30_)">
		<defs>
			<rect id="SVGID_1093_" x="-1091.5" y="-620.3" width="1121" height="1030"/>
		</defs>
		<clipPath id="SVGID_32_">
			<use xlink:href="#SVGID_1093_"  overflow="visible"/>
		</clipPath>
	</g>
</g>
<g>
	<defs>
		<path id="SVGID_1095_" d="M-216.5-105.8h-2.2l0.9-2.1l9.1-22l0.4-0.9h1h98.9h1l0.4,0.9l9.1,22l0.9,2.1h-2.2H-216.5z M-216.5-108.8
			h117l-1.4,2.1l-9.1-22l1.4,0.9h-98.9l1.4-0.9l-9.1,22L-216.5-108.8z M-238.7-85.8h161.5v-65h-161.5V-85.8z"/>
	</defs>
	<clipPath id="SVGID_34_">
		<use xlink:href="#SVGID_1095_"  overflow="visible"/>
	</clipPath>
	<g clip-path="url(#SVGID_34_)">
		<defs>
			<polygon id="SVGID_1097_" points="-216.5,-107.3 -99.5,-107.3 -108.6,-129.3 -207.4,-129.3 			"/>
		</defs>
		<clipPath id="SVGID_36_">
			<use xlink:href="#SVGID_1097_"  overflow="visible"/>
		</clipPath>
		<g clip-path="url(#SVGID_36_)">
			<defs>
				<rect id="SVGID_1099_" x="-1091.5" y="-620.3" width="1121" height="1030"/>
			</defs>
			<clipPath id="SVGID_38_">
				<use xlink:href="#SVGID_1099_"  overflow="visible"/>
			</clipPath>
		</g>
	</g>
</g>
<g>
	<defs>
		<polygon id="SVGID_1101_" points="-216.5,-107.3 -99.5,-107.3 -108.6,-129.3 -207.4,-129.3 		"/>
	</defs>
	<clipPath id="SVGID_40_">
		<use xlink:href="#SVGID_1101_"  overflow="visible"/>
	</clipPath>
	<g clip-path="url(#SVGID_40_)">
		<defs>
			<rect id="SVGID_1103_" x="-1091.5" y="-620.3" width="1121" height="1030"/>
		</defs>
		<clipPath id="SVGID_42_">
			<use xlink:href="#SVGID_1103_"  overflow="visible"/>
		</clipPath>
	</g>
</g>
<g>
	<defs>
		<path id="SVGID_1105_" d="M-131.5-138.8h-1.5v1.5v16v1.5h1.5h12h1.5v-1.5v-16v-1.5h-1.5H-131.5z M-131.5-135.8h12l-1.5-1.5v16
			l1.5-1.5h-12l1.5,1.5v-16L-131.5-135.8z M-153-158.8h55v59h-55V-158.8z"/>
	</defs>
	<clipPath id="SVGID_44_">
		<use xlink:href="#SVGID_1105_"  overflow="visible"/>
	</clipPath>
	<g clip-path="url(#SVGID_44_)">
		<defs>
			<rect id="SVGID_1107_" x="-131.5" y="-137.3" width="12" height="16"/>
		</defs>
		<clipPath id="SVGID_46_">
			<use xlink:href="#SVGID_1107_"  overflow="visible"/>
		</clipPath>
		<g clip-path="url(#SVGID_46_)">
			<defs>
				<rect id="SVGID_1109_" x="-1091.5" y="-620.3" width="1121" height="1030"/>
			</defs>
			<clipPath id="SVGID_48_">
				<use xlink:href="#SVGID_1109_"  overflow="visible"/>
			</clipPath>
		</g>
	</g>
</g>
<g>
	<defs>
		<rect id="SVGID_1111_" x="-131.5" y="-137.3" width="12" height="16"/>
	</defs>
	<clipPath id="SVGID_50_">
		<use xlink:href="#SVGID_1111_"  overflow="visible"/>
	</clipPath>
	<g clip-path="url(#SVGID_50_)">
		<defs>
			<rect id="SVGID_1113_" x="-1091.5" y="-620.3" width="1121" height="1030"/>
		</defs>
		<clipPath id="SVGID_52_">
			<use xlink:href="#SVGID_1113_"  overflow="visible"/>
		</clipPath>
	</g>
</g>
<g>
	<defs>
		<path id="SVGID_1115_" d="M-197.5-72.8h-1.5v1.5v31v1.5h1.5h21h1.5v-1.5v-31v-1.5h-1.5H-197.5z M-197.5-69.8h21l-1.5-1.5v31
			l1.5-1.5h-21l1.5,1.5v-31L-197.5-69.8z M-219-92.8h64v74h-64V-92.8z"/>
	</defs>
	<clipPath id="SVGID_54_">
		<use xlink:href="#SVGID_1115_"  overflow="visible"/>
	</clipPath>
	<g clip-path="url(#SVGID_54_)">
		<defs>
			<rect id="SVGID_1117_" x="-197.5" y="-71.3" width="21" height="31"/>
		</defs>
		<clipPath id="SVGID_56_">
			<use xlink:href="#SVGID_1117_"  overflow="visible"/>
		</clipPath>
		<g clip-path="url(#SVGID_56_)">
			<defs>
				<rect id="SVGID_1119_" x="-1091.5" y="-620.3" width="1121" height="1030"/>
			</defs>
			<clipPath id="SVGID_58_">
				<use xlink:href="#SVGID_1119_"  overflow="visible"/>
			</clipPath>
		</g>
	</g>
</g>
<g>
	<defs>
		<rect id="SVGID_1121_" x="-197.5" y="-71.3" width="21" height="31"/>
	</defs>
	<clipPath id="SVGID_60_">
		<use xlink:href="#SVGID_1121_"  overflow="visible"/>
	</clipPath>
	<g clip-path="url(#SVGID_60_)">
		<defs>
			<rect id="SVGID_1123_" x="-1091.5" y="-620.3" width="1121" height="1030"/>
		</defs>
		<clipPath id="SVGID_62_">
			<use xlink:href="#SVGID_1123_"  overflow="visible"/>
		</clipPath>
	</g>
</g>
<g>
	<defs>
		<path id="SVGID_1125_" d="M-196.5-100.8h-1.5v1.5v19v1.5h1.5h19h1.5v-1.5v-19v-1.5h-1.5H-196.5z M-196.5-97.8h19l-1.5-1.5v19
			l1.5-1.5h-19l1.5,1.5v-19L-196.5-97.8z M-218-120.8h62v62h-62V-120.8z"/>
	</defs>
	<clipPath id="SVGID_64_">
		<use xlink:href="#SVGID_1125_"  overflow="visible"/>
	</clipPath>
	<g clip-path="url(#SVGID_64_)">
		<defs>
			<rect id="SVGID_1127_" x="-196.5" y="-99.3" width="19" height="19"/>
		</defs>
		<clipPath id="SVGID_66_">
			<use xlink:href="#SVGID_1127_"  overflow="visible"/>
		</clipPath>
		<g clip-path="url(#SVGID_66_)">
			<defs>
				<rect id="SVGID_1129_" x="-1091.5" y="-620.3" width="1121" height="1030"/>
			</defs>
			<clipPath id="SVGID_68_">
				<use xlink:href="#SVGID_1129_"  overflow="visible"/>
			</clipPath>
		</g>
	</g>
</g>
<g>
	<defs>
		<rect id="SVGID_1131_" x="-196.5" y="-99.3" width="19" height="19"/>
	</defs>
	<clipPath id="SVGID_70_">
		<use xlink:href="#SVGID_1131_"  overflow="visible"/>
	</clipPath>
	<g clip-path="url(#SVGID_70_)">
		<defs>
			<rect id="SVGID_1133_" x="-1091.5" y="-620.3" width="1121" height="1030"/>
		</defs>
		<clipPath id="SVGID_72_">
			<use xlink:href="#SVGID_1133_"  overflow="visible"/>
		</clipPath>
	</g>
</g>
<g>
	<defs>
		<path id="SVGID_1135_" d="M-191.5-95.8h-1.5v1.5v9v1.5h1.5h9h1.5v-1.5v-9v-1.5h-1.5H-191.5z M-191.5-92.8h9l-1.5-1.5v9l1.5-1.5h-9
			l1.5,1.5v-9L-191.5-92.8z M-213-115.8h52v52h-52V-115.8z"/>
	</defs>
	<clipPath id="SVGID_74_">
		<use xlink:href="#SVGID_1135_"  overflow="visible"/>
	</clipPath>
	<g clip-path="url(#SVGID_74_)">
		<defs>
			<rect id="SVGID_1137_" x="-191.5" y="-94.3" width="9" height="9"/>
		</defs>
		<clipPath id="SVGID_76_">
			<use xlink:href="#SVGID_1137_"  overflow="visible"/>
		</clipPath>
		<g clip-path="url(#SVGID_76_)">
			<defs>
				<rect id="SVGID_1139_" x="-1091.5" y="-620.3" width="1121" height="1030"/>
			</defs>
			<clipPath id="SVGID_78_">
				<use xlink:href="#SVGID_1139_"  overflow="visible"/>
			</clipPath>
		</g>
	</g>
</g>
<g>
	<defs>
		<rect id="SVGID_1141_" x="-191.5" y="-94.3" width="9" height="9"/>
	</defs>
	<clipPath id="SVGID_80_">
		<use xlink:href="#SVGID_1141_"  overflow="visible"/>
	</clipPath>
	<g clip-path="url(#SVGID_80_)">
		<defs>
			<rect id="SVGID_1143_" x="-1091.5" y="-620.3" width="1121" height="1030"/>
		</defs>
		<clipPath id="SVGID_82_">
			<use xlink:href="#SVGID_1143_"  overflow="visible"/>
		</clipPath>
	</g>
</g>
<g>
	<defs>
		<path id="SVGID_1145_" d="M-166.5-100.8h-1.5v1.5v19v1.5h1.5h19h1.5v-1.5v-19v-1.5h-1.5H-166.5z M-166.5-97.8h19l-1.5-1.5v19
			l1.5-1.5h-19l1.5,1.5v-19L-166.5-97.8z M-188-120.8h62v62h-62V-120.8z"/>
	</defs>
	<clipPath id="SVGID_84_">
		<use xlink:href="#SVGID_1145_"  overflow="visible"/>
	</clipPath>
	<g clip-path="url(#SVGID_84_)">
		<defs>
			<rect id="SVGID_1147_" x="-166.5" y="-99.3" width="19" height="19"/>
		</defs>
		<clipPath id="SVGID_86_">
			<use xlink:href="#SVGID_1147_"  overflow="visible"/>
		</clipPath>
		<g clip-path="url(#SVGID_86_)">
			<defs>
				<rect id="SVGID_1149_" x="-1091.5" y="-620.3" width="1121" height="1030"/>
			</defs>
			<clipPath id="SVGID_88_">
				<use xlink:href="#SVGID_1149_"  overflow="visible"/>
			</clipPath>
		</g>
	</g>
</g>
<g>
	<defs>
		<rect id="SVGID_1151_" x="-166.5" y="-99.3" width="19" height="19"/>
	</defs>
	<clipPath id="SVGID_90_">
		<use xlink:href="#SVGID_1151_"  overflow="visible"/>
	</clipPath>
	<g clip-path="url(#SVGID_90_)">
		<defs>
			<rect id="SVGID_1153_" x="-1091.5" y="-620.3" width="1121" height="1030"/>
		</defs>
		<clipPath id="SVGID_92_">
			<use xlink:href="#SVGID_1153_"  overflow="visible"/>
		</clipPath>
	</g>
</g>
<g>
	<defs>
		<path id="SVGID_1155_" d="M-137.5-100.8h-1.5v1.5v19v1.5h1.5h19h1.5v-1.5v-19v-1.5h-1.5H-137.5z M-137.5-97.8h19l-1.5-1.5v19
			l1.5-1.5h-19l1.5,1.5v-19L-137.5-97.8z M-159-120.8h62v62h-62V-120.8z"/>
	</defs>
	<clipPath id="SVGID_94_">
		<use xlink:href="#SVGID_1155_"  overflow="visible"/>
	</clipPath>
	<g clip-path="url(#SVGID_94_)">
		<defs>
			<rect id="SVGID_1157_" x="-137.5" y="-99.3" width="19" height="19"/>
		</defs>
		<clipPath id="SVGID_96_">
			<use xlink:href="#SVGID_1157_"  overflow="visible"/>
		</clipPath>
		<g clip-path="url(#SVGID_96_)">
			<defs>
				<rect id="SVGID_1159_" x="-1091.5" y="-620.3" width="1121" height="1030"/>
			</defs>
			<clipPath id="SVGID_98_">
				<use xlink:href="#SVGID_1159_"  overflow="visible"/>
			</clipPath>
		</g>
	</g>
</g>
<g>
	<defs>
		<rect id="SVGID_1161_" x="-137.5" y="-99.3" width="19" height="19"/>
	</defs>
	<clipPath id="SVGID_100_">
		<use xlink:href="#SVGID_1161_"  overflow="visible"/>
	</clipPath>
	<g clip-path="url(#SVGID_100_)">
		<defs>
			<rect id="SVGID_1163_" x="-1091.5" y="-620.3" width="1121" height="1030"/>
		</defs>
		<clipPath id="SVGID_102_">
			<use xlink:href="#SVGID_1163_"  overflow="visible"/>
		</clipPath>
	</g>
</g>
<g>
	<defs>
		<path id="SVGID_1165_" d="M-166.5-72.8h-1.5v1.5v19v1.5h1.5h19h1.5v-1.5v-19v-1.5h-1.5H-166.5z M-166.5-69.8h19l-1.5-1.5v19
			l1.5-1.5h-19l1.5,1.5v-19L-166.5-69.8z M-188-92.8h62v62h-62V-92.8z"/>
	</defs>
	<clipPath id="SVGID_104_">
		<use xlink:href="#SVGID_1165_"  overflow="visible"/>
	</clipPath>
	<g clip-path="url(#SVGID_104_)">
		<defs>
			<rect id="SVGID_1167_" x="-166.5" y="-71.3" width="19" height="19"/>
		</defs>
		<clipPath id="SVGID_106_">
			<use xlink:href="#SVGID_1167_"  overflow="visible"/>
		</clipPath>
		<g clip-path="url(#SVGID_106_)">
			<defs>
				<rect id="SVGID_1169_" x="-1091.5" y="-620.3" width="1121" height="1030"/>
			</defs>
			<clipPath id="SVGID_108_">
				<use xlink:href="#SVGID_1169_"  overflow="visible"/>
			</clipPath>
		</g>
	</g>
</g>
<g>
	<defs>
		<rect id="SVGID_1171_" x="-166.5" y="-71.3" width="19" height="19"/>
	</defs>
	<clipPath id="SVGID_110_">
		<use xlink:href="#SVGID_1171_"  overflow="visible"/>
	</clipPath>
	<g clip-path="url(#SVGID_110_)">
		<defs>
			<rect id="SVGID_1173_" x="-1091.5" y="-620.3" width="1121" height="1030"/>
		</defs>
		<clipPath id="SVGID_112_">
			<use xlink:href="#SVGID_1173_"  overflow="visible"/>
		</clipPath>
	</g>
</g>
<g>
	<defs>
		<path id="SVGID_1175_" d="M-137.5-72.8h-1.5v1.5v19v1.5h1.5h19h1.5v-1.5v-19v-1.5h-1.5H-137.5z M-137.5-69.8h19l-1.5-1.5v19
			l1.5-1.5h-19l1.5,1.5v-19L-137.5-69.8z M-159-92.8h62v62h-62V-92.8z"/>
	</defs>
	<clipPath id="SVGID_114_">
		<use xlink:href="#SVGID_1175_"  overflow="visible"/>
	</clipPath>
	<g clip-path="url(#SVGID_114_)">
		<defs>
			<rect id="SVGID_1177_" x="-137.5" y="-71.3" width="19" height="19"/>
		</defs>
		<clipPath id="SVGID_116_">
			<use xlink:href="#SVGID_1177_"  overflow="visible"/>
		</clipPath>
		<g clip-path="url(#SVGID_116_)">
			<defs>
				<rect id="SVGID_1179_" x="-1091.5" y="-620.3" width="1121" height="1030"/>
			</defs>
			<clipPath id="SVGID_118_">
				<use xlink:href="#SVGID_1179_"  overflow="visible"/>
			</clipPath>
		</g>
	</g>
</g>
<g>
	<defs>
		<rect id="SVGID_1181_" x="-137.5" y="-71.3" width="19" height="19"/>
	</defs>
	<clipPath id="SVGID_120_">
		<use xlink:href="#SVGID_1181_"  overflow="visible"/>
	</clipPath>
	<g clip-path="url(#SVGID_120_)">
		<defs>
			<rect id="SVGID_1183_" x="-1091.5" y="-620.3" width="1121" height="1030"/>
		</defs>
		<clipPath id="SVGID_122_">
			<use xlink:href="#SVGID_1183_"  overflow="visible"/>
		</clipPath>
	</g>
</g>
<g>
	<defs>
		<path id="SVGID_1185_" d="M-161.5-95.8h-1.5v1.5v9v1.5h1.5h9h1.5v-1.5v-9v-1.5h-1.5H-161.5z M-161.5-92.8h9l-1.5-1.5v9l1.5-1.5h-9
			l1.5,1.5v-9L-161.5-92.8z M-183-115.8h52v52h-52V-115.8z"/>
	</defs>
	<clipPath id="SVGID_124_">
		<use xlink:href="#SVGID_1185_"  overflow="visible"/>
	</clipPath>
	<g clip-path="url(#SVGID_124_)">
		<defs>
			<rect id="SVGID_1187_" x="-161.5" y="-94.3" width="9" height="9"/>
		</defs>
		<clipPath id="SVGID_126_">
			<use xlink:href="#SVGID_1187_"  overflow="visible"/>
		</clipPath>
		<g clip-path="url(#SVGID_126_)">
			<defs>
				<rect id="SVGID_1189_" x="-1091.5" y="-620.3" width="1121" height="1030"/>
			</defs>
			<clipPath id="SVGID_128_">
				<use xlink:href="#SVGID_1189_"  overflow="visible"/>
			</clipPath>
		</g>
	</g>
</g>
<g>
	<defs>
		<rect id="SVGID_1191_" x="-161.5" y="-94.3" width="9" height="9"/>
	</defs>
	<clipPath id="SVGID_130_">
		<use xlink:href="#SVGID_1191_"  overflow="visible"/>
	</clipPath>
	<g clip-path="url(#SVGID_130_)">
		<defs>
			<rect id="SVGID_1193_" x="-1091.5" y="-620.3" width="1121" height="1030"/>
		</defs>
		<clipPath id="SVGID_132_">
			<use xlink:href="#SVGID_1193_"  overflow="visible"/>
		</clipPath>
	</g>
</g>
<g>
	<defs>
		<path id="SVGID_1195_" d="M-132.5-95.8h-1.5v1.5v9v1.5h1.5h9h1.5v-1.5v-9v-1.5h-1.5H-132.5z M-132.5-92.8h9l-1.5-1.5v9l1.5-1.5h-9
			l1.5,1.5v-9L-132.5-92.8z M-154-115.8h52v52h-52V-115.8z"/>
	</defs>
	<clipPath id="SVGID_134_">
		<use xlink:href="#SVGID_1195_"  overflow="visible"/>
	</clipPath>
	<g clip-path="url(#SVGID_134_)">
		<defs>
			<rect id="SVGID_1197_" x="-132.5" y="-94.3" width="9" height="9"/>
		</defs>
		<clipPath id="SVGID_136_">
			<use xlink:href="#SVGID_1197_"  overflow="visible"/>
		</clipPath>
		<g clip-path="url(#SVGID_136_)">
			<defs>
				<rect id="SVGID_1199_" x="-1091.5" y="-620.3" width="1121" height="1030"/>
			</defs>
			<clipPath id="SVGID_138_">
				<use xlink:href="#SVGID_1199_"  overflow="visible"/>
			</clipPath>
		</g>
	</g>
</g>
<g>
	<defs>
		<rect id="SVGID_1201_" x="-132.5" y="-94.3" width="9" height="9"/>
	</defs>
	<clipPath id="SVGID_140_">
		<use xlink:href="#SVGID_1201_"  overflow="visible"/>
	</clipPath>
	<g clip-path="url(#SVGID_140_)">
		<defs>
			<rect id="SVGID_1203_" x="-1091.5" y="-620.3" width="1121" height="1030"/>
		</defs>
		<clipPath id="SVGID_142_">
			<use xlink:href="#SVGID_1203_"  overflow="visible"/>
		</clipPath>
	</g>
</g>
<g>
	<defs>
		<path id="SVGID_1205_" d="M-161.5-67.8h-1.5v1.5v9v1.5h1.5h9h1.5v-1.5v-9v-1.5h-1.5H-161.5z M-161.5-64.8h9l-1.5-1.5v9l1.5-1.5h-9
			l1.5,1.5v-9L-161.5-64.8z M-183-87.8h52v52h-52V-87.8z"/>
	</defs>
	<clipPath id="SVGID_144_">
		<use xlink:href="#SVGID_1205_"  overflow="visible"/>
	</clipPath>
	<g clip-path="url(#SVGID_144_)">
		<defs>
			<rect id="SVGID_1207_" x="-161.5" y="-66.3" width="9" height="9"/>
		</defs>
		<clipPath id="SVGID_146_">
			<use xlink:href="#SVGID_1207_"  overflow="visible"/>
		</clipPath>
		<g clip-path="url(#SVGID_146_)">
			<defs>
				<rect id="SVGID_1209_" x="-1091.5" y="-620.3" width="1121" height="1030"/>
			</defs>
			<clipPath id="SVGID_148_">
				<use xlink:href="#SVGID_1209_"  overflow="visible"/>
			</clipPath>
		</g>
	</g>
</g>
<g>
	<defs>
		<rect id="SVGID_1211_" x="-161.5" y="-66.3" width="9" height="9"/>
	</defs>
	<clipPath id="SVGID_150_">
		<use xlink:href="#SVGID_1211_"  overflow="visible"/>
	</clipPath>
	<g clip-path="url(#SVGID_150_)">
		<defs>
			<rect id="SVGID_1213_" x="-1091.5" y="-620.3" width="1121" height="1030"/>
		</defs>
		<clipPath id="SVGID_152_">
			<use xlink:href="#SVGID_1213_"  overflow="visible"/>
		</clipPath>
	</g>
</g>
<g>
	<defs>
		<path id="SVGID_1215_" d="M-132.5-67.8h-1.5v1.5v9v1.5h1.5h9h1.5v-1.5v-9v-1.5h-1.5H-132.5z M-132.5-64.8h9l-1.5-1.5v9l1.5-1.5h-9
			l1.5,1.5v-9L-132.5-64.8z M-154-87.8h52v52h-52V-87.8z"/>
	</defs>
	<clipPath id="SVGID_154_">
		<use xlink:href="#SVGID_1215_"  overflow="visible"/>
	</clipPath>
	<g clip-path="url(#SVGID_154_)">
		<defs>
			<rect id="SVGID_1217_" x="-132.5" y="-66.3" width="9" height="9"/>
		</defs>
		<clipPath id="SVGID_156_">
			<use xlink:href="#SVGID_1217_"  overflow="visible"/>
		</clipPath>
		<g clip-path="url(#SVGID_156_)">
			<defs>
				<rect id="SVGID_1219_" x="-1091.5" y="-620.3" width="1121" height="1030"/>
			</defs>
			<clipPath id="SVGID_158_">
				<use xlink:href="#SVGID_1219_"  overflow="visible"/>
			</clipPath>
		</g>
	</g>
</g>
<g>
	<defs>
		<rect id="SVGID_1221_" x="-132.5" y="-66.3" width="9" height="9"/>
	</defs>
	<clipPath id="SVGID_160_">
		<use xlink:href="#SVGID_1221_"  overflow="visible"/>
	</clipPath>
	<g clip-path="url(#SVGID_160_)">
		<defs>
			<rect id="SVGID_1223_" x="-1091.5" y="-620.3" width="1121" height="1030"/>
		</defs>
		<clipPath id="SVGID_162_">
			<use xlink:href="#SVGID_1223_"  overflow="visible"/>
		</clipPath>
	</g>
</g>
<g>
	
		<rect x="120.7" y="27.4" transform="matrix(0.8037 -0.595 0.595 0.8037 4.3806 92.6666)" fill="none" stroke="#091F2F" stroke-width="3" stroke-miterlimit="10" width="43.8" height="24.7"/>
	<line fill="none" stroke="#091F2F" stroke-width="3" stroke-miterlimit="10" x1="141.9" y1="34.6" x2="151.9" y2="27.2"/>
	<line fill="none" stroke="#091F2F" stroke-width="3" stroke-miterlimit="10" x1="147.1" y1="41.6" x2="157.1" y2="34.2"/>
</g>
<rect x="90" y="59.7" fill="#FFFFFF" stroke="#091F2F" stroke-width="3" stroke-miterlimit="10" width="89.9" height="56.8"/>
<rect x="90" y="51.5" fill="#FFFFFF" stroke="#091F2F" stroke-width="3" stroke-miterlimit="10" width="89.9" height="8.2"/>
<g>
	<path d="M112.2,95.4l-5.6-14.5h3.9l3.7,10.6l3.7-10.6h3.8L116,95.4H112.2z"/>
	<path d="M137.8,88.1c0,4.2-3.3,7.4-7.8,7.4c-4.5,0-7.8-3.2-7.8-7.4c0-4.2,3.3-7.3,7.8-7.3C134.4,80.8,137.8,83.9,137.8,88.1z
		 M125.9,88.2c0,2.4,1.9,4.3,4.1,4.3c2.2,0,4-1.9,4-4.3c0-2.4-1.8-4.3-4-4.3C127.7,83.9,125.9,85.7,125.9,88.2z"/>
	<path d="M145.9,83.9v11.5h-3.7V83.9h-4.3v-3h12.3v3H145.9z"/>
	<path d="M155.5,83.8v2.9h6.9v2.9h-6.9v2.9h7.9v2.9h-11.5V80.9h11.3v2.9H155.5z"/>
</g>
</svg>
