<?xml version="1.0" encoding="utf-8"?>
<!-- Generator: Adobe Illustrator 18.1.1, SVG Export Plug-In . SVG Version: 6.00 Build 0)  -->
<svg version="1.1" id="Layer_1" xmlns="http://www.w3.org/2000/svg" xmlns:xlink="http://www.w3.org/1999/xlink" x="0px" y="0px"
	 viewBox="0 0 276 137" enable-background="new 0 0 276 137" xml:space="preserve">
<circle fill="#FFFFFF" cx="138.4" cy="67.6" r="48.5"/>
<g>
	<defs>
		<path id="SVGID_1005_" d="M-867.9-96.9c-27.1,0-49-21.9-49-49s21.9-49,49-49c27.1,0,49,21.9,49,49S-840.8-96.9-867.9-96.9z
			 M-867.9-93.9c28.7,0,52-23.3,52-52s-23.3-52-52-52s-52,23.3-52,52S-896.6-93.9-867.9-93.9z M-939.9-217.9h144v144h-144V-217.9z"
			/>
	</defs>
	<clipPath id="SVGID_2_">
		<use xlink:href="#SVGID_1005_"  overflow="visible"/>
	</clipPath>
	<g clip-path="url(#SVGID_2_)">
		<defs>
			<circle id="SVGID_1007_" cx="-867.9" cy="-145.9" r="50.5"/>
		</defs>
		<clipPath id="SVGID_4_">
			<use xlink:href="#SVGID_1007_"  overflow="visible"/>
		</clipPath>
		<g clip-path="url(#SVGID_4_)">
			<defs>
				<rect id="SVGID_1009_" x="-1042.4" y="-881.9" width="1121" height="1030"/>
			</defs>
			<clipPath id="SVGID_6_">
				<use xlink:href="#SVGID_1009_"  overflow="visible"/>
			</clipPath>
		</g>
	</g>
</g>
<g>
	<defs>
		<circle id="SVGID_1011_" cx="-867.9" cy="-145.9" r="50.5"/>
	</defs>
	<clipPath id="SVGID_8_">
		<use xlink:href="#SVGID_1011_"  overflow="visible"/>
	</clipPath>
	<g clip-path="url(#SVGID_8_)">
		<defs>
			<rect id="SVGID_1013_" x="-1042.4" y="-881.9" width="1121" height="1030"/>
		</defs>
		<clipPath id="SVGID_10_">
			<use xlink:href="#SVGID_1013_"  overflow="visible"/>
		</clipPath>
	</g>
</g>
<g>
	<defs>
		<circle id="SVGID_1015_" cx="-867.9" cy="-145.9" r="43.5"/>
	</defs>
	<clipPath id="SVGID_12_">
		<use xlink:href="#SVGID_1015_"  overflow="visible"/>
	</clipPath>
	<g clip-path="url(#SVGID_12_)">
		<defs>
			<rect id="SVGID_1017_" x="-1042.4" y="-881.9" width="1121" height="1030"/>
		</defs>
		<clipPath id="SVGID_14_">
			<use xlink:href="#SVGID_1017_"  overflow="visible"/>
		</clipPath>
	</g>
</g>
<g>
	<defs>
		<circle id="SVGID_1019_" cx="138" cy="67.5" r="50.5"/>
	</defs>
	<clipPath id="SVGID_16_">
		<use xlink:href="#SVGID_1019_"  overflow="visible"/>
	</clipPath>
	<g clip-path="url(#SVGID_16_)">
		<defs>
			<rect id="SVGID_1021_" x="-36.5" y="-668.5" width="1121" height="1030"/>
		</defs>
		<clipPath id="SVGID_18_">
			<use xlink:href="#SVGID_1021_"  overflow="visible"/>
		</clipPath>
		
			<circle clip-path="url(#SVGID_18_)" fill="none" stroke="#0F1F2D" stroke-width="6" stroke-linecap="round" stroke-miterlimit="10" cx="138" cy="67.5" r="50.5"/>
	</g>
</g>
<g>
	<defs>
		<circle id="SVGID_1023_" cx="138" cy="67.5" r="43.5"/>
	</defs>
	<clipPath id="SVGID_20_">
		<use xlink:href="#SVGID_1023_"  overflow="visible"/>
	</clipPath>
	<g clip-path="url(#SVGID_20_)">
		<defs>
			<rect id="SVGID_1025_" x="-36.5" y="-668.5" width="1121" height="1030"/>
		</defs>
		<clipPath id="SVGID_22_">
			<use xlink:href="#SVGID_1025_"  overflow="visible"/>
		</clipPath>
		
			<circle clip-path="url(#SVGID_22_)" fill="none" stroke="#0F1F2D" stroke-width="6" stroke-linecap="round" stroke-miterlimit="10" cx="138" cy="67.5" r="43.5"/>
	</g>
</g>
<line fill="none" stroke="#0F1F2D" stroke-width="3" stroke-miterlimit="10" x1="115.5" y1="89.8" x2="135.4" y2="69.8"/>
<circle fill="#FFFFFF" stroke="#0F1F2D" stroke-width="3" stroke-linecap="round" stroke-miterlimit="10" cx="145.2" cy="59.6" r="14.4"/>
</svg>
