<?xml version="1.0" encoding="utf-8"?>
<!-- Generator: Adobe Illustrator 18.1.1, SVG Export Plug-In . SVG Version: 6.00 Build 0)  -->
<svg version="1.1" xmlns="http://www.w3.org/2000/svg" xmlns:xlink="http://www.w3.org/1999/xlink" x="0px" y="0px"
	 viewBox="0 0 112 112" enable-background="new 0 0 112 112" xml:space="preserve">
<g id="Scratch" display="none">
</g>
<g id="Layer_1">
	<rect x="14" y="94.1" fill="#FF454A" width="84" height="17"/>
	<path fill="#091F2F" d="M73,93.1"/>
	<circle fill="#091F2F" cx="37" cy="13.5" r="13.7"/>
	<circle fill="#091F2F" cx="74.1" cy="13.5" r="13.7"/>
	<path fill="#091F2F" d="M68.2,27.1h-9.9H42v9h-9v-9H14v60h22.7L29,77.7l3.6-38.6h9.3l2.8,38.6l-7.8,9.4h21.3h9.9H98v-60H68.2z
		 M74.1,64.2c0,0-13.1-9.4-13.1-17.7c0-3.6,2.5-7.5,6.1-7.5c3.3,0,6.5,1.4,6.9,4.6c0.4-3.3,3.5-4.6,6.9-4.6c3.6,0,6.1,3.9,6.1,7.5
		C87.1,54.7,74.1,64.2,74.1,64.2z"/>
</g>
<g id="Originals" display="none">
	<g id="XMLID_1671_" display="inline">
		<g id="XMLID_1676_">
			<rect id="XMLID_1677_" x="6" y="73.1" fill="#FF454A" width="99" height="17"/>
		</g>
	</g>
	<path id="XMLID_1670_" display="inline" d="M65,72.1"/>
	<g id="XMLID_1665_" display="inline">
		<rect id="XMLID_1667_" x="6.4" y="-4.9" width="63.7" height="70.7"/>
		<rect id="XMLID_1666_" x="58.3" y="-4.9" width="46.4" height="70.7"/>
	</g>
	<g id="XMLID_1663_" display="inline">
		<polygon id="XMLID_1664_" fill="#FFFFFF" points="23.7,54.8 33,66.2 42.3,54.9 39,9.1 28,9.1 		"/>
	</g>
	<g id="XMLID_1661_" display="inline">
		<rect id="XMLID_1662_" x="28" y="-4.9" fill="#FFFFFF" width="11" height="11"/>
	</g>
	<g id="XMLID_1656_" display="inline">
		<g>
			<path fill="#FFFFFF" d="M85.2,9.1c-4,0-7.7,1.6-8.1,5.5c-0.5-3.9-4.2-5.5-8.1-5.5c-4.3,0-7.3,4.6-7.3,8.9c0,9.8,15.5,21,15.5,21
				s15.3-11.2,15.3-21C92.5,13.7,89.5,9.1,85.2,9.1z"/>
		</g>
	</g>
</g>
</svg>
